<svg xmlns="http://www.w3.org/2000/svg" width="14.147" height="23.037" viewBox="0 0 14.147 23.037">
  <path id="Union_1" data-name="Union 1" d="M-174.738,1960.27l-10.916-9.829a1.5,1.5,0,0,1-.343-.283,1.5,1.5,0,0,1-.384-1.022,1.5,1.5,0,0,1,.384-1.022,1.5,1.5,0,0,1,.346-.284l10.913-9.827a1.5,1.5,0,0,1,2.118.112,1.5,1.5,0,0,1-.111,2.119l-9.888,8.9,9.888,8.9a1.5,1.5,0,0,1,.111,2.118,1.5,1.5,0,0,1-1.115.5A1.492,1.492,0,0,1-174.738,1960.27Z" transform="translate(186.381 -1937.618)" fill="#fff"/>
</svg>
