<svg xmlns="http://www.w3.org/2000/svg" width="12.147" height="23.037" viewBox="0 0 12.147 23.037">
  <path id="Union_1" data-name="Union 1" d="M-186.051,1960.159a1.678,1.678,0,0,1,.1-2.118l8.491-8.9-8.491-8.9a1.679,1.679,0,0,1-.1-2.119,1.165,1.165,0,0,1,1.819-.112l9.374,9.83a1.355,1.355,0,0,1,.293.282,1.643,1.643,0,0,1,.331,1.022,1.643,1.643,0,0,1-.331,1.022,1.353,1.353,0,0,1-.293.282l-9.374,9.829a1.185,1.185,0,0,1-.861.385A1.213,1.213,0,0,1-186.051,1960.159Z" transform="translate(186.381 -1937.618)" fill="#fff"/>
</svg>
