<svg xmlns="http://www.w3.org/2000/svg" width="29.493" height="29.493" viewBox="0 0 29.493 29.493">
  <g id="calendar" transform="translate(-16 -16)">
    <path id="Path_18064" data-name="Path 18064" d="M43.035,17.966H40.086v-.492a1.475,1.475,0,1,0-2.949,0v.492H32.221v-.492a1.475,1.475,0,1,0-2.949,0v.492H24.356v-.492a1.475,1.475,0,1,0-2.949,0v.492H18.458A2.461,2.461,0,0,0,16,20.424V43.035a2.461,2.461,0,0,0,2.458,2.458H43.035a2.461,2.461,0,0,0,2.458-2.458V20.424A2.461,2.461,0,0,0,43.035,17.966Zm-4.916-.492a.492.492,0,1,1,.983,0v2.949a.492.492,0,1,1-.983,0Zm-7.865,0a.492.492,0,1,1,.983,0v2.949a.492.492,0,1,1-.983,0Zm-7.865,0a.492.492,0,1,1,.983,0v2.949a.492.492,0,1,1-.983,0Zm-3.932,1.475h2.949v1.475a1.475,1.475,0,1,0,2.949,0V18.949h4.916v1.475a1.475,1.475,0,1,0,2.949,0V18.949h4.916v1.475a1.475,1.475,0,0,0,2.949,0V18.949h2.949a1.476,1.476,0,0,1,1.475,1.475v3.441H16.983V20.424A1.476,1.476,0,0,1,18.458,18.949ZM43.035,44.51H18.458a1.476,1.476,0,0,1-1.475-1.475V24.848H44.51V43.035A1.476,1.476,0,0,1,43.035,44.51Z"/>
    <path id="Path_18065" data-name="Path 18065" d="M402.458,216h-1.966a.492.492,0,0,0-.492.492v1.966a.492.492,0,0,0,.492.492h1.966a.492.492,0,0,0,.492-.492v-1.966A.492.492,0,0,0,402.458,216Zm-.492,1.966h-.983v-.983h.983Z" transform="translate(-360.406 -187.711)"/>
    <path id="Path_18066" data-name="Path 18066" d="M242.458,376h-1.966a.492.492,0,0,0-.492.492v1.966a.492.492,0,0,0,.492.492h1.966a.492.492,0,0,0,.492-.492v-1.966A.492.492,0,0,0,242.458,376Zm-.492,1.966h-.983v-.983h.983Z" transform="translate(-210.237 -337.88)"/>
    <path id="Path_18067" data-name="Path 18067" d="M162.458,216h-1.966a.492.492,0,0,0-.492.492v1.966a.492.492,0,0,0,.492.492h1.966a.492.492,0,0,0,.492-.492v-1.966A.492.492,0,0,0,162.458,216Zm-.492,1.966h-.983v-.983h.983Z" transform="translate(-135.152 -187.711)"/>
    <path id="Path_18068" data-name="Path 18068" d="M82.458,296H80.492a.492.492,0,0,0-.492.492v1.966a.492.492,0,0,0,.492.492h1.966a.492.492,0,0,0,.492-.492v-1.966A.492.492,0,0,0,82.458,296Zm-.492,1.966h-.983v-.983h.983Z" transform="translate(-60.068 -262.796)"/>
    <path id="Path_18069" data-name="Path 18069" d="M162.458,296h-1.966a.492.492,0,0,0-.492.492v1.966a.492.492,0,0,0,.492.492h1.966a.492.492,0,0,0,.492-.492v-1.966A.492.492,0,0,0,162.458,296Zm-.492,1.966h-.983v-.983h.983Z" transform="translate(-135.152 -262.796)"/>
    <path id="Path_18070" data-name="Path 18070" d="M82.458,376H80.492a.492.492,0,0,0-.492.492v1.966a.492.492,0,0,0,.492.492h1.966a.492.492,0,0,0,.492-.492v-1.966A.492.492,0,0,0,82.458,376Zm-.492,1.966h-.983v-.983h.983Z" transform="translate(-60.068 -337.88)"/>
    <path id="Path_18071" data-name="Path 18071" d="M162.458,376h-1.966a.492.492,0,0,0-.492.492v1.966a.492.492,0,0,0,.492.492h1.966a.492.492,0,0,0,.492-.492v-1.966A.492.492,0,0,0,162.458,376Zm-.492,1.966h-.983v-.983h.983Z" transform="translate(-135.152 -337.88)"/>
    <path id="Path_18072" data-name="Path 18072" d="M240.434,203.009l-2.458-.376-1.1-2.352a.492.492,0,0,0-.89,0l-1.1,2.352-2.458.376a.492.492,0,0,0-.278.829l1.793,1.838-.424,2.6a.492.492,0,0,0,.722.509l2.193-1.212,2.193,1.212a.492.492,0,0,0,.723-.509l-.424-2.6,1.793-1.838a.492.492,0,0,0-.278-.829Zm-2.392,2.158a.492.492,0,0,0-.133.422l.3,1.846-1.544-.854a.492.492,0,0,0-.476,0l-1.544.854.3-1.846a.492.492,0,0,0-.133-.422l-1.3-1.33,1.772-.27a.491.491,0,0,0,.371-.277l.77-1.641.77,1.641a.491.491,0,0,0,.371.277l1.772.27Z" transform="translate(-202.732 -172.693)"/>
    <path id="Path_18073" data-name="Path 18073" d="M402.458,296h-1.966a.492.492,0,0,0-.492.492v1.966a.492.492,0,0,0,.492.492h1.966a.491.491,0,0,0,.492-.492v-1.966A.492.492,0,0,0,402.458,296Zm-.492,1.966h-.983v-.983h.983Z" transform="translate(-360.406 -262.796)"/>
    <path id="Path_18074" data-name="Path 18074" d="M402.458,376h-1.966a.492.492,0,0,0-.492.492v1.966a.492.492,0,0,0,.492.492h1.966a.492.492,0,0,0,.492-.492v-1.966A.492.492,0,0,0,402.458,376Zm-.492,1.966h-.983v-.983h.983Z" transform="translate(-360.406 -337.88)"/>
    <path id="Path_18075" data-name="Path 18075" d="M322.458,376h-1.966a.492.492,0,0,0-.492.492v1.966a.492.492,0,0,0,.492.492h1.966a.492.492,0,0,0,.492-.492v-1.966A.492.492,0,0,0,322.458,376Zm-.492,1.966h-.983v-.983h.983Z" transform="translate(-285.321 -337.88)"/>
  </g>
</svg>
