<svg xmlns="http://www.w3.org/2000/svg" width="27.314" height="27.314" viewBox="0 0 27.314 27.314">
  <path id="facebook" d="M24.113,0H3.2A3.2,3.2,0,0,0,0,3.2V24.113a3.2,3.2,0,0,0,3.2,3.2H24.113a3.2,3.2,0,0,0,3.2-3.2V3.2A3.2,3.2,0,0,0,24.113,0ZM25.18,24.113a1.068,1.068,0,0,1-1.067,1.067h-6.3V17.392h3.416l.4-3.308H17.818V10.51a1.565,1.565,0,0,1,1.6-1.6h2.4V5.815a23.728,23.728,0,0,0-2.4-.213A4.94,4.94,0,0,0,16,7.042a4.858,4.858,0,0,0-1.486,3.477v3.565H11.043v3.308h3.468V25.18H3.2a1.068,1.068,0,0,1-1.067-1.067V3.2A1.068,1.068,0,0,1,3.2,2.134H24.113A1.068,1.068,0,0,1,25.18,3.2Zm0,0" fill="#fff"/>
</svg>
