<svg xmlns="http://www.w3.org/2000/svg" width="73.687" height="71" viewBox="0 0 73.687 71">
  <g id="gps" transform="translate(0 -1.002)">
    <path id="Path_16043" data-name="Path 16043" d="M69.228,23.013h-14.6a1.339,1.339,0,1,0,0,2.679H66.821L70.7,61.854H3.038L7.6,25.692H19.808a1.339,1.339,0,1,0,0-2.679H5.233L0,64.533H73.687Z" transform="translate(0 7.469)"/>
    <path id="Path_16044" data-name="Path 16044" d="M30.341,51.852c-.2.117-.407.22-.6.342-.295.19-.583.39-.865.6a1.34,1.34,0,0,0,1.586,2.16c.238-.175.481-.344.734-.508a14.723,14.723,0,0,1,1.358-.778,1.33,1.33,0,0,0,.619-1.7c.011-.011.024-.019.033-.029,2.423-2.566,10.588-12.183,13.968-28.2a27.526,27.526,0,0,0,.458-9.267C46.484,5.658,41.013,1,31.814,1S17.147,5.658,15.992,14.464a27.559,27.559,0,0,0,.459,9.267C19.8,39.6,27.835,49.176,30.341,51.852ZM18.648,14.813c.982-7.49,5.289-11.131,13.167-11.131S44,7.324,44.981,14.813a24.931,24.931,0,0,1-.423,8.367A58.928,58.928,0,0,1,31.816,49.493,58.942,58.942,0,0,1,19.073,23.18,24.931,24.931,0,0,1,18.648,14.813Z" transform="translate(5.358 0)"/>
    <path id="Path_16045" data-name="Path 16045" d="M30.248,24.911a9.839,9.839,0,1,0-9.839-9.839A9.849,9.849,0,0,0,30.248,24.911Zm0-17a7.16,7.16,0,1,1-7.16,7.16A7.169,7.169,0,0,1,30.248,7.913Z" transform="translate(6.926 1.436)"/>
    <path id="Path_16046" data-name="Path 16046" d="M31.7,37.289a1.339,1.339,0,0,0,.56,2.62c.785-.166,1.635-.307,2.526-.419a1.339,1.339,0,0,0-.329-2.657C33.485,36.951,32.556,37.105,31.7,37.289Z" transform="translate(10.397 12.155)"/>
    <path id="Path_16047" data-name="Path 16047" d="M36.6,37.958a1.339,1.339,0,0,0,1.337,1.282h.059l2.68-.111a1.339,1.339,0,0,0,1.276-1.4,1.373,1.373,0,0,0-1.4-1.278l-2.673.111A1.337,1.337,0,0,0,36.6,37.958Z" transform="translate(12.419 12.029)"/>
    <path id="Path_16048" data-name="Path 16048" d="M23.124,42.245c-.688.52-1.4,1.019-2.116,1.483a1.34,1.34,0,0,0,1.46,2.247c.767-.5,1.532-1.034,2.27-1.591a1.34,1.34,0,1,0-1.614-2.139Z" transform="translate(6.922 13.904)"/>
    <path id="Path_16049" data-name="Path 16049" d="M45.448,35.672a4.773,4.773,0,0,1-1.8.7A1.34,1.34,0,1,0,44.187,39a7.366,7.366,0,0,0,2.807-1.142l.179-.131a1.339,1.339,0,0,0-1.617-2.136Z" transform="translate(14.448 11.646)"/>
    <path id="Path_16050" data-name="Path 16050" d="M9.594,43.831a1.339,1.339,0,1,0-2.585-.7,8.958,8.958,0,0,0-.3,1.882c-.007.154-.011.309-.011.473,0,.263.013.525.039.786a1.339,1.339,0,0,0,1.331,1.2c.044,0,.09,0,.138-.007A1.343,1.343,0,0,0,9.4,46c-.019-.175-.025-.354-.027-.522,0-.111,0-.222.009-.332A6.24,6.24,0,0,1,9.594,43.831Z" transform="translate(2.273 13.96)"/>
    <path id="Path_16051" data-name="Path 16051" d="M45.755,27.827a7.877,7.877,0,0,0-3.2.242,1.339,1.339,0,0,0,.363,2.628,1.307,1.307,0,0,0,.364-.051,5.227,5.227,0,0,1,2.109-.163,1.34,1.34,0,0,0,.359-2.656Z" transform="translate(14.111 9.08)"/>
    <path id="Path_16052" data-name="Path 16052" d="M46.719,33.669a1.339,1.339,0,0,0,.884,1.674,1.311,1.311,0,0,0,.4.06,1.337,1.337,0,0,0,1.279-.944,5.707,5.707,0,0,0,.245-1.29c.007-.111.011-.224.011-.335a5.346,5.346,0,0,0-.342-1.864,1.339,1.339,0,0,0-2.511.931,2.685,2.685,0,0,1,.174.932l0,.157A3.02,3.02,0,0,1,46.719,33.669Z" transform="translate(15.812 9.873)"/>
    <path id="Path_16053" data-name="Path 16053" d="M18.3,45.2c-.785.368-1.584.71-2.376,1.017a1.34,1.34,0,0,0,.484,2.589,1.324,1.324,0,0,0,.482-.09c.85-.328,1.708-.7,2.549-1.089A1.34,1.34,0,0,0,18.3,45.2Z" transform="translate(5.113 14.954)"/>
    <path id="Path_16054" data-name="Path 16054" d="M10.541,41.823a1.339,1.339,0,0,0,.64-.163,3.275,3.275,0,0,1,1.22-.387,2.173,2.173,0,0,1,.544,0,1.339,1.339,0,0,0,.351-2.655A4.946,4.946,0,0,0,12.1,38.61a5.953,5.953,0,0,0-2.2.7,1.34,1.34,0,0,0,.643,2.515Z" transform="translate(3.122 12.752)"/>
    <path id="Path_16055" data-name="Path 16055" d="M10.247,49.51a6.634,6.634,0,0,0,.876.166,8.554,8.554,0,0,0,1.03.063,9.936,9.936,0,0,0,1.259-.083A1.339,1.339,0,0,0,13.077,47a6.563,6.563,0,0,1-1.629.02,4.467,4.467,0,0,1-.528-.1,1.339,1.339,0,1,0-.674,2.592Z" transform="translate(3.137 15.566)"/>
  </g>
</svg>
