<svg id="instagram" xmlns="http://www.w3.org/2000/svg" width="27.314" height="27.314" viewBox="0 0 27.314 27.314">
  <g id="Group_2925" data-name="Group 2925">
    <g id="Group_2924" data-name="Group 2924">
      <path id="Path_16063" data-name="Path 16063" d="M19.38,0H7.934A7.943,7.943,0,0,0,0,7.934V19.38a7.943,7.943,0,0,0,7.934,7.934H19.38a7.943,7.943,0,0,0,7.934-7.934V7.934A7.943,7.943,0,0,0,19.38,0Zm5.8,19.38a5.807,5.807,0,0,1-5.8,5.8H7.934a5.807,5.807,0,0,1-5.8-5.8V7.934a5.807,5.807,0,0,1,5.8-5.8H19.38a5.807,5.807,0,0,1,5.8,5.8Z" fill="#fff"/>
    </g>
  </g>
  <g id="Group_2927" data-name="Group 2927" transform="translate(6.295 6.295)">
    <g id="Group_2926" data-name="Group 2926">
      <path id="Path_16064" data-name="Path 16064" d="M125.362,118a7.362,7.362,0,1,0,7.362,7.362A7.37,7.37,0,0,0,125.362,118Zm0,12.59a5.228,5.228,0,1,1,5.228-5.228A5.234,5.234,0,0,1,125.362,130.59Z" transform="translate(-118 -118)" fill="#fff"/>
    </g>
  </g>
  <g id="Group_2929" data-name="Group 2929" transform="translate(20.002 4.594)">
    <g id="Group_2928" data-name="Group 2928" transform="translate(0 0)">
      <circle id="Ellipse_17" data-name="Ellipse 17" cx="1.217" cy="1.217" r="1.217" transform="translate(0)" fill="#fff"/>
    </g>
  </g>
</svg>
