<svg xmlns="http://www.w3.org/2000/svg" xmlns:xlink="http://www.w3.org/1999/xlink" width="340" height="729" viewBox="0 0 340 729">
  <defs>
    <clipPath id="clip-path">
      <path id="Rectangle_2635" data-name="Rectangle 2635" d="M0,0H310a30,30,0,0,1,30,30V729a0,0,0,0,1,0,0H0a0,0,0,0,1,0,0V0A0,0,0,0,1,0,0Z" transform="translate(-1)" fill="#2d3d8b"/>
    </clipPath>
  </defs>
  <g id="Mask_Group_33" data-name="Mask Group 33" transform="translate(1)" clip-path="url(#clip-path)">
    <g id="quad" transform="translate(-108.306 206.738) rotate(-34)" opacity="0.105">
      <path id="Path_16056" data-name="Path 16056" d="M1.394,284.893a7.048,7.048,0,0,0-6.811,6.913,6.439,6.439,0,0,0,6.559,6.658l73.52-1.386a61.768,61.768,0,0,0,42.3-18.2,2.014,2.014,0,0,0,1.057-1.073A63.026,63.026,0,0,0,135.683,228.1l13.417-.253c-.007.395.093.771.119,1.165a12.841,12.841,0,0,0,13.1,12.152l67.318-1.269a14.084,14.084,0,0,0,13.564-12.67c.041-.392.121-.766.162-1.155l13.416-.253a59.151,59.151,0,0,0,16.063,49.324c.1.113.133.268.247.383s.269.156.4.263a54.048,54.048,0,0,0,4.329,3.9l-62.539,1.179a7.048,7.048,0,0,0-6.811,6.913,6.439,6.439,0,0,0,6.559,6.658l100.258-1.889a61.767,61.767,0,0,0,42.3-18.2,2.014,2.014,0,0,0,1.057-1.073c23.339-24.16,23.98-62.145,1.438-85.36-.1-.128-.142-.283-.259-.4s-.266-.15-.378-.251a57.233,57.233,0,0,0-6.359-5.435l6.906-10.352a81.39,81.39,0,0,1,13.692,13.24,12.979,12.979,0,0,0,14.967,3.882,14.015,14.015,0,0,0,8.987-12.922l.481-25.894a40.624,40.624,0,0,0-3.9-18.172L376.25,94.075a38.643,38.643,0,0,0-7.109-10.169c-.132-.134-.261-.253-.406-.377a38.179,38.179,0,0,0-8.174-6.333L326.133,57.636C323,15.238,258.717-3.721,255.9-4.537a6.776,6.776,0,0,0-6.534,1.685,7.066,7.066,0,0,0-2.039,6.538,6.414,6.414,0,0,0,4.495,4.852c15.127,4.338,51.384,19.786,59.43,43.4l-45.412-14.6a19.191,19.191,0,0,0-22.519-14.4,21.2,21.2,0,0,0-16.905,22.1,19.232,19.232,0,0,0,19.629,18.177,20.917,20.917,0,0,0,2.737-.328L264.2,89.513l-21.689,28.035-48.419.913a64.931,64.931,0,0,1-37.44-10.864l-22.3-14.857c-31.822-21.208-74.82-16.084-102.723,12.239l-2.99,3.034-17.284.326A14.1,14.1,0,0,0-2.268,122.162l-.252,13.574A12.878,12.878,0,0,0,10.6,149.055l2.4-.045,8.265,18.761a12.757,12.757,0,0,0,8.047,7.4,13.36,13.36,0,0,0,11.014-1.506c1.919-1.2,3.811-2.289,5.68-3.308l3.657,11.734a64.091,64.091,0,0,0-15.441,11.417c-.047.047-.114.064-.161.118s-.069.116-.116.167c-23.721,24.164-24.491,62.521-1.723,85.881.1.113.136.268.247.383s.272.156.4.263a54.61,54.61,0,0,0,4.332,3.9ZM46.6,265.727a6.492,6.492,0,0,0-8.612-.4,45.755,45.755,0,0,1-8.582-21.742,6.962,6.962,0,0,0,6.3-6.795,6.351,6.351,0,0,0-6.047-6.559,49.35,49.35,0,0,1,9.371-22.04,6.509,6.509,0,0,0,8.66-.707,6.759,6.759,0,0,0,.7-8.791,47.875,47.875,0,0,1,21.712-9.5,6.336,6.336,0,0,0,6.459,6.141,6.946,6.946,0,0,0,6.695-6.389,44.313,44.313,0,0,1,21.413,8.719,6.672,6.672,0,0,0,.345,8.781,6.422,6.422,0,0,0,8.646.362,45.7,45.7,0,0,1,8.538,21.678,6.961,6.961,0,0,0-6.3,6.792,6.356,6.356,0,0,0,6.047,6.562,49.417,49.417,0,0,1-9.383,22.053,6.51,6.51,0,0,0-8.578.761,6.762,6.762,0,0,0-.752,8.709A47.9,47.9,0,0,1,81.5,282.874a6.334,6.334,0,0,0-6.462-6.138,6.942,6.942,0,0,0-6.691,6.386,44.259,44.259,0,0,1-21.328-8.693A6.742,6.742,0,0,0,46.6,265.727ZM162.565,227.76a86.721,86.721,0,0,0-3.7-20.452l75.46-1.422a89.356,89.356,0,0,0-4.435,20.435Zm117.08-24.1a6.509,6.509,0,0,0,8.66-.707,6.759,6.759,0,0,0,.7-8.791,47.875,47.875,0,0,1,21.712-9.5,6.336,6.336,0,0,0,6.462,6.141,6.945,6.945,0,0,0,6.691-6.389,44.3,44.3,0,0,1,21.413,8.719,6.675,6.675,0,0,0,.345,8.781,6.422,6.422,0,0,0,8.646.362,45.7,45.7,0,0,1,8.538,21.678,6.961,6.961,0,0,0-6.3,6.792,6.356,6.356,0,0,0,6.047,6.562,49.417,49.417,0,0,1-9.383,22.053,6.51,6.51,0,0,0-8.578.761,6.762,6.762,0,0,0-.752,8.709,47.9,47.9,0,0,1-21.724,9.517,6.333,6.333,0,0,0-6.459-6.138,6.943,6.943,0,0,0-6.694,6.386,44.236,44.236,0,0,1-21.325-8.693,6.68,6.68,0,0,0-.416-8.724,6.434,6.434,0,0,0-8.6-.406,45.711,45.711,0,0,1-8.582-21.742,6.961,6.961,0,0,0,6.3-6.792,6.352,6.352,0,0,0-6.047-6.562,49.308,49.308,0,0,1,9.349-22.04Zm62-28.484c-22.431-9.728-48.969-4.238-66.811,13.829-.047.047-.114.061-.161.118s-.069.116-.116.164a64.4,64.4,0,0,0-14.4,22.9l-14.038.265c9.66-32.2,38.865-54.855,71.692-55.617a64.887,64.887,0,0,1,31.061,7.5Zm20.7-78.053a25.432,25.432,0,0,1,1.863,3.256l8.324,17.39-33.639-9.5Zm-87.53-16.5L260.8,56.414a21.824,21.824,0,0,0,3.5-5.162l38.942,12.522ZM239.737,42.987a7.048,7.048,0,0,1,6.811-6.913,6.439,6.439,0,0,1,6.556,6.661,7.047,7.047,0,0,1-6.808,6.91A6.439,6.439,0,0,1,239.737,42.987ZM89.285,93.3a64.957,64.957,0,0,1,37.44,10.867l22.3,14.857a77.756,77.756,0,0,0,44.811,13.008l38.019-.717-8.587,11.1a7.009,7.009,0,0,1-5.336,2.728l-56.251,1.06a6.439,6.439,0,0,1-3.681-1.07L105.25,109.963a19.247,19.247,0,0,0-11.019-3.186l-45.543.858A68.936,68.936,0,0,1,89.285,93.3ZM11.1,121.91l13.368-.252L14.189,135.421l-3.341.063Zm22.488,40.114-8.458-19.2,16.046-21.483,52.8-1a6.442,6.442,0,0,1,3.684,1.07l52.719,35.175a19.225,19.225,0,0,0,11.05,3.186l56.251-1.06a20.681,20.681,0,0,0,15.983-8.157L276.643,95l42.78-25.362,31.734,18.048-17.425,8.265A14.208,14.208,0,0,0,325.34,109.4a12.9,12.9,0,0,0,9.389,12.057l45.632,12.762,1.755,3.678a26.977,26.977,0,0,1,2.607,12.16l-.637,25.754a81.555,81.555,0,0,0-74.916-31.981c-29.21,3.327-55.253,21.594-68.966,48.374l-86.71,1.634A83.219,83.219,0,0,0,77.434,147.8,85.11,85.11,0,0,0,33.588,162.024Zm24.858,2.767a60.373,60.373,0,0,1,18.736-3.424,70.657,70.657,0,0,1,69.694,52.952l-14.035.265a58.353,58.353,0,0,0-13.368-22.133c-.1-.128-.142-.283-.259-.4s-.263-.15-.378-.251a57.384,57.384,0,0,0-56.519-14.659Zm0,0" transform="translate(0 0)" fill="#6479e1"/>
      <path id="Path_16057" data-name="Path 16057" d="M6.685-.126A7.048,7.048,0,0,0-.126,6.787a6.439,6.439,0,0,0,6.559,6.658l46.785-.882a7.047,7.047,0,0,0,6.811-6.91A6.439,6.439,0,0,0,53.47-1.008Zm0,0" transform="translate(135.07 282.373)" fill="#6479e1"/>
      <path id="Path_16058" data-name="Path 16058" d="M25.727,53.784c14.766-.278,26.964-12.659,27.242-27.646A25.76,25.76,0,0,0,26.735-.5C11.969-.226-.226,12.155-.5,27.146A25.757,25.757,0,0,0,25.727,53.784Zm.756-40.716A12.88,12.88,0,0,1,39.6,26.39a14.1,14.1,0,0,1-13.62,13.823A12.878,12.878,0,0,1,12.864,26.894,14.1,14.1,0,0,1,26.483,13.067Zm0,0" transform="translate(49.565 209.368)" fill="#6479e1"/>
      <path id="Path_16059" data-name="Path 16059" d="M25.731,53.784C40.5,53.505,52.691,41.125,52.97,26.138A25.758,25.758,0,0,0,26.738-.5C11.973-.226-.226,12.155-.5,27.146A25.76,25.76,0,0,0,25.731,53.784Zm.756-40.716A12.88,12.88,0,0,1,39.6,26.39,14.1,14.1,0,0,1,25.982,40.213,12.878,12.878,0,0,1,12.867,26.894,14.1,14.1,0,0,1,26.486,13.067Zm0,0" transform="translate(290.184 204.833)" fill="#6479e1"/>
    </g>
    <g id="quad-2" data-name="quad" transform="translate(236.208 709.487) rotate(-177)" opacity="0.105">
      <path id="Path_16056-2" data-name="Path 16056" d="M7.377,14.7A7.632,7.632,0,0,1,0,7.211,6.972,6.972,0,0,1,7.1,0l79.61,1.5a66.885,66.885,0,0,1,45.8,19.7,2.181,2.181,0,0,1,1.144,1.161A68.246,68.246,0,0,1,152.789,76.2l14.528.274c-.008-.427.1-.835.129-1.262a13.9,13.9,0,0,1,14.189-13.158l72.894,1.374a15.25,15.25,0,0,1,14.688,13.72c.044.424.131.83.176,1.251l14.528.274a64.05,64.05,0,0,1,17.393-53.409c.1-.122.144-.29.267-.415s.292-.169.429-.284a58.524,58.524,0,0,1,4.687-4.222l-67.719-1.276a7.632,7.632,0,0,1-7.375-7.486,6.972,6.972,0,0,1,7.1-7.209L347.267,6.412a66.883,66.883,0,0,1,45.8,19.7,2.181,2.181,0,0,1,1.144,1.161c25.272,26.161,25.966,67.293,1.557,92.43-.113.139-.153.306-.28.435s-.288.163-.409.271a61.973,61.973,0,0,1-6.885,5.886l7.478,11.21A88.131,88.131,0,0,0,410.5,123.171a14.054,14.054,0,0,1,16.207-4.2,15.176,15.176,0,0,1,9.732,13.993l.52,28.038a43.988,43.988,0,0,1-4.228,19.677L413.282,221.32a41.844,41.844,0,0,1-7.7,11.011c-.143.145-.283.274-.44.409a41.341,41.341,0,0,1-8.851,6.857l-37.28,21.18c-3.387,45.91-73,66.439-76.05,67.323a7.337,7.337,0,0,1-7.075-1.825,7.651,7.651,0,0,1-2.208-7.079,6.945,6.945,0,0,1,4.867-5.254c16.38-4.7,55.64-21.425,64.352-47l-49.173,15.814a20.781,20.781,0,0,1-24.384,15.592,22.953,22.953,0,0,1-18.305-23.932,20.825,20.825,0,0,1,21.255-19.683,22.652,22.652,0,0,1,2.964.355l16.693-28.83L268.464,195.9l-52.429-.988a70.309,70.309,0,0,0-40.541,11.764l-24.15,16.088c-34.458,22.964-81.017,17.417-111.232-13.253l-3.237-3.286-18.716-.353A15.265,15.265,0,0,1,3.411,190.907l-.273-14.7a13.944,13.944,0,0,1,14.2-14.422l2.6.049,8.949-20.315a13.814,13.814,0,0,1,8.714-8.013,14.466,14.466,0,0,1,11.927,1.63c2.078,1.3,4.126,2.478,6.15,3.582l3.96-12.706a69.4,69.4,0,0,1-16.72-12.362c-.051-.051-.124-.07-.175-.128s-.075-.126-.126-.181c-25.686-26.166-26.52-67.7-1.865-92.994.107-.122.147-.29.267-.415s.295-.169.429-.284a59.133,59.133,0,0,1,4.691-4.222ZM56.328,35.45A7.03,7.03,0,0,1,47,35.883,49.545,49.545,0,0,0,37.71,59.426a7.538,7.538,0,0,1,6.817,7.358,6.877,6.877,0,0,1-6.548,7.1A53.438,53.438,0,0,0,48.125,97.751a7.048,7.048,0,0,1,9.377.765,7.319,7.319,0,0,1,.753,9.52,51.841,51.841,0,0,0,23.51,10.291,6.86,6.86,0,0,1,6.994-6.65,7.521,7.521,0,0,1,7.249,6.918,47.984,47.984,0,0,0,23.187-9.442,7.224,7.224,0,0,1,.373-9.508,6.954,6.954,0,0,1,9.362-.392,49.49,49.49,0,0,0,9.245-23.473,7.538,7.538,0,0,1-6.817-7.354,6.882,6.882,0,0,1,6.548-7.106,53.51,53.51,0,0,0-10.16-23.879,7.049,7.049,0,0,1-9.289-.824,7.322,7.322,0,0,1-.814-9.43A51.862,51.862,0,0,0,94.12,16.883a6.858,6.858,0,0,1-7,6.647,7.517,7.517,0,0,1-7.246-6.915,47.925,47.925,0,0,0-23.095,9.413A7.3,7.3,0,0,1,56.328,35.45ZM181.9,76.561a93.905,93.905,0,0,1-4,22.146l81.71,1.54a96.757,96.757,0,0,1-4.8-22.127Zm126.778,26.1a7.048,7.048,0,0,1,9.377.765,7.319,7.319,0,0,1,.753,9.52,51.841,51.841,0,0,0,23.51,10.291,6.861,6.861,0,0,1,7-6.65,7.52,7.52,0,0,1,7.246,6.918,47.97,47.97,0,0,0,23.187-9.442,7.228,7.228,0,0,1,.373-9.508,6.954,6.954,0,0,1,9.362-.392,49.489,49.489,0,0,0,9.245-23.473,7.538,7.538,0,0,1-6.817-7.354,6.882,6.882,0,0,1,6.548-7.106A53.51,53.51,0,0,0,388.3,42.352a7.05,7.05,0,0,1-9.289-.824,7.322,7.322,0,0,1-.814-9.43A51.863,51.863,0,0,0,354.67,21.793a6.858,6.858,0,0,1-6.994,6.647,7.518,7.518,0,0,1-7.249-6.915,47.9,47.9,0,0,0-23.092,9.413,7.233,7.233,0,0,1-.451,9.446,6.967,6.967,0,0,1-9.308.44,49.5,49.5,0,0,0-9.293,23.543,7.538,7.538,0,0,1,6.817,7.354,6.878,6.878,0,0,1-6.548,7.106,53.393,53.393,0,0,0,10.124,23.865Zm67.132,30.844c-24.289,10.534-53.025,4.589-72.345-14.974-.051-.051-.124-.066-.175-.128s-.075-.126-.126-.177a69.731,69.731,0,0,1-15.6-24.8l-15.2-.286c10.46,34.866,42.084,59.4,77.63,60.223a70.261,70.261,0,0,0,33.634-8.122Zm22.414,84.518a27.537,27.537,0,0,0,2.018-3.526l9.013-18.831-36.426,10.281Zm-94.78,17.863L288.266,262.1a23.632,23.632,0,0,1,3.793,5.589l42.167-13.559Zm-37.98,40.752a7.632,7.632,0,0,0,7.376,7.486,6.972,6.972,0,0,0,7.1-7.213,7.63,7.63,0,0,0-7.372-7.482A6.972,6.972,0,0,0,265.462,276.639ZM102.547,222.155a70.337,70.337,0,0,0,40.541-11.767l24.15-16.088a84.2,84.2,0,0,1,48.523-14.085l41.168.776-9.3-12.021a7.589,7.589,0,0,0-5.778-2.953l-60.911-1.148a6.973,6.973,0,0,0-3.986,1.159l-57.122,38.088a20.841,20.841,0,0,1-11.932,3.45l-49.315-.929A74.646,74.646,0,0,0,102.547,222.155ZM17.886,191.179l14.475.273-11.13-14.9-3.618-.068Zm24.351-43.437-9.159,20.788,17.376,23.262,57.177,1.078a6.976,6.976,0,0,0,3.989-1.159l57.086-38.089a20.818,20.818,0,0,1,11.965-3.45l60.911,1.148a22.394,22.394,0,0,1,17.306,8.833l46.536,60.159,46.324,27.462,34.363-19.543-18.868-8.95a15.385,15.385,0,0,1-9.087-14.562,13.967,13.967,0,0,1,10.167-13.056l49.412-13.819,1.9-3.982a29.211,29.211,0,0,0,2.822-13.168l-.69-27.887a88.31,88.31,0,0,1-81.122,34.63c-31.629-3.6-59.83-23.383-74.679-52.381l-93.893-1.77a90.112,90.112,0,0,1-82.359,49.862A92.16,92.16,0,0,1,42.237,147.743Zm26.917-3a65.373,65.373,0,0,0,20.288,3.708,76.509,76.509,0,0,0,75.467-57.338l-15.2-.286A63.187,63.187,0,0,1,135.237,114.8c-.113.139-.153.306-.28.435s-.285.163-.409.271a62.137,62.137,0,0,1-61.2,15.874Zm0,0" transform="translate(0 0)" fill="#6479e1"/>
      <path id="Path_16057-2" data-name="Path 16057" d="M7.377,14.7A7.632,7.632,0,0,1,0,7.211,6.972,6.972,0,0,1,7.1,0l50.66.955A7.631,7.631,0,0,1,65.14,8.439a6.973,6.973,0,0,1-7.1,7.213Zm0,0" transform="translate(151.987 2.864)" fill="#6479e1"/>
      <path id="Path_16058-2" data-name="Path 16058" d="M28.409.005c15.989.3,29.2,13.707,29.5,29.936S45.489,59.091,29.5,58.789.307,45.083.005,28.85,12.42-.3,28.409.005Zm.818,44.089a13.947,13.947,0,0,0,14.2-14.426A15.262,15.262,0,0,0,28.682,14.7a13.944,13.944,0,0,0-14.2,14.422A15.265,15.265,0,0,0,29.228,44.094Zm0,0" transform="translate(58.987 38.233)" fill="#6479e1"/>
      <path id="Path_16059-2" data-name="Path 16059" d="M28.413.005c15.989.3,29.194,13.707,29.5,29.936S45.493,59.091,29.5,58.789.307,45.082.005,28.85,12.424-.3,28.413.005Zm.818,44.089a13.947,13.947,0,0,0,14.2-14.426A15.262,15.262,0,0,0,28.686,14.7a13.944,13.944,0,0,0-14.2,14.422A15.265,15.265,0,0,0,29.231,44.094Zm0,0" transform="translate(319.537 43.144)" fill="#6479e1"/>
    </g>
  </g>
</svg>
