<svg xmlns="http://www.w3.org/2000/svg" width="46.856" height="58.481" viewBox="0 0 46.856 58.481">
  <g id="pin_1_" data-name="pin(1)" transform="translate(-50.885)">
    <g id="Group_2956" data-name="Group 2956" transform="translate(63.456 12.571)">
      <g id="Group_2955" data-name="Group 2955">
        <path id="Path_16078" data-name="Path 16078" d="M171.8,110.062a10.857,10.857,0,1,0,10.857,10.857A10.869,10.869,0,0,0,171.8,110.062Zm0,17.143a6.286,6.286,0,1,1,6.286-6.286A6.293,6.293,0,0,1,171.8,127.2Z" transform="translate(-160.947 -110.062)" fill="#5f5f5f"/>
      </g>
    </g>
    <g id="Group_2958" data-name="Group 2958" transform="translate(50.885)">
      <g id="Group_2957" data-name="Group 2957" transform="translate(0)">
        <path id="Path_16079" data-name="Path 16079" d="M74.313,0A23.455,23.455,0,0,0,50.885,23.428v.648c0,6.533,3.746,14.147,11.133,22.628A96.3,96.3,0,0,0,72.877,57.32l1.436,1.161L75.75,57.32A96.283,96.283,0,0,0,86.608,46.7C94,38.223,97.741,30.609,97.741,24.076v-.648A23.455,23.455,0,0,0,74.313,0ZM93.17,24.076c0,11.041-14.226,24.407-18.857,28.464-4.632-4.059-18.857-17.424-18.857-28.464v-.648a18.857,18.857,0,0,1,37.714,0v.648Z" transform="translate(-50.885)" fill="#5f5f5f"/>
      </g>
    </g>
  </g>
</svg>
