<svg xmlns="http://www.w3.org/2000/svg" width="93.737" height="69.025" viewBox="0 0 93.737 69.025">
  <path id="Path_16056" data-name="Path 16056" d="M1.546,64.921a1.546,1.546,0,1,0,0,3.091h17a13.858,13.858,0,0,0,9.707-3.964.438.438,0,0,0,.24-.24,13.77,13.77,0,0,0,3.873-11.252h3.1c0,.09.025.176.033.266a3.09,3.09,0,0,0,3.083,2.825H54.152a3.091,3.091,0,0,0,3.083-2.829c.008-.089.025-.174.033-.262h3.1A13.781,13.781,0,0,0,64.3,63.863c.023.026.032.062.059.088s.063.037.093.062a13.147,13.147,0,0,0,1.018.907H51.005a1.546,1.546,0,1,0,0,3.091H74.19A13.857,13.857,0,0,0,83.9,64.047a.438.438,0,0,0,.24-.24A13.867,13.867,0,0,0,84.1,44.364c-.025-.03-.034-.065-.062-.093s-.062-.035-.088-.059a13.935,13.935,0,0,0-1.494-1.266l1.553-2.329a19.773,19.773,0,0,1,3.224,3.076,3.106,3.106,0,0,0,3.479.949,3.05,3.05,0,0,0,2.024-2.906v-5.9a9.358,9.358,0,0,0-.981-4.157l-4.315-8.63A9.279,9.279,0,0,0,85.752,20.7c-.031-.031-.062-.059-.1-.088a9.3,9.3,0,0,0-1.918-1.478l-8.048-4.6C74.785,4.859,59.832.263,59.177.065a1.546,1.546,0,0,0-.887,2.962C61.807,4.08,70.261,7.756,72.223,13.172L61.656,9.649a4.629,4.629,0,1,0-4.468,5.812,4.85,4.85,0,0,0,.632-.063L61.5,21.531l-4.9,6.295h-11.2A15.639,15.639,0,0,1,36.7,25.189l-5.223-3.481a18.79,18.79,0,0,0-23.71,2.348l-.679.679h-4A3.092,3.092,0,0,0,0,27.826v3.092a3.091,3.091,0,0,0,3.091,3.091h.556l1.992,4.31a3.091,3.091,0,0,0,4.435,1.425c.439-.265.872-.505,1.3-.729l.9,2.689a14.048,14.048,0,0,0-3.523,2.535c-.011.011-.026.014-.037.026s-.016.026-.026.037a13.879,13.879,0,0,0-.03,19.561c.023.026.033.062.059.088s.064.037.093.062a13.287,13.287,0,0,0,1.019.907Zm10.375-4.173a1.527,1.527,0,0,0-1.994-.128,10.74,10.74,0,0,1-2.079-4.991,1.524,1.524,0,0,0,0-3.042,10.724,10.724,0,0,1,2.073-4.982,1.513,1.513,0,0,0,2.123-2.124,10.726,10.726,0,0,1,4.982-2.072,1.524,1.524,0,0,0,3.042,0,10.74,10.74,0,0,1,4.991,2.079,1.51,1.51,0,0,0,2.119,2.122,10.727,10.727,0,0,1,2.068,4.976,1.524,1.524,0,0,0,0,3.042,10.738,10.738,0,0,1-2.076,4.985,1.512,1.512,0,0,0-2.118,2.118A10.73,10.73,0,0,1,20.068,64.8a1.524,1.524,0,0,0-3.042,0,10.727,10.727,0,0,1-4.971-2.072A1.527,1.527,0,0,0,11.921,60.748Zm26.662-8.153a19.9,19.9,0,0,0-.943-4.676H55.09a19.646,19.646,0,0,0-.938,4.637Zm26.98-4.989a1.513,1.513,0,0,0,2.123-2.124,10.726,10.726,0,0,1,4.982-2.072,1.524,1.524,0,0,0,3.042,0A10.737,10.737,0,0,1,80.7,45.488,1.51,1.51,0,0,0,82.82,47.61a10.727,10.727,0,0,1,2.068,4.976,1.524,1.524,0,0,0,0,3.042,10.738,10.738,0,0,1-2.076,4.985,1.512,1.512,0,0,0-2.118,2.118A10.73,10.73,0,0,1,75.71,64.8a1.524,1.524,0,0,0-3.042,0,10.722,10.722,0,0,1-4.97-2.072,1.513,1.513,0,0,0-2.124-2.119A10.73,10.73,0,0,1,63.5,55.622a1.524,1.524,0,0,0,0-3.042A10.715,10.715,0,0,1,65.563,47.6Zm14.219-6.224a13.862,13.862,0,0,0-15.4,2.864c-.011.011-.026.013-.037.026s-.016.026-.026.037a13.929,13.929,0,0,0-3.233,5.156H57.844A17.083,17.083,0,0,1,74.19,37.1a15.586,15.586,0,0,1,7.217,1.842Zm4.453-17.7a6.062,6.062,0,0,1,.445.75l2,4-7.822-2.308ZM63.917,19.551l-3.346-5.576a4.717,4.717,0,0,0,.788-1.161l9.062,3.02Zm-8.275-8.726a1.546,1.546,0,1,1,1.546,1.545A1.546,1.546,0,0,1,55.642,10.825ZM21.055,21.643a15.646,15.646,0,0,1,8.708,2.637l5.223,3.481a18.729,18.729,0,0,0,10.422,3.156H54.2L52.26,33.41a1.562,1.562,0,0,1-1.223.6H38.029a1.551,1.551,0,0,1-.856-.26L24.819,25.508a4.636,4.636,0,0,0-2.563-.773H11.725A15.575,15.575,0,0,1,21.055,21.643ZM3.091,27.826H6.182L3.864,30.918H3.091Zm5.374,9.237L6.426,32.652l3.62-4.826h12.21a1.552,1.552,0,0,1,.857.26L35.46,36.327a4.63,4.63,0,0,0,2.57.773H51.037A4.611,4.611,0,0,0,54.7,35.31l9.7-12.474,9.787-5.6,7.418,4.249-4,1.808a3.091,3.091,0,0,0,.34,5.816l10.611,3.1.422.845a6.214,6.214,0,0,1,.655,2.782L89.6,41.71A19.711,19.711,0,0,0,56.39,44.828H36.339A20.167,20.167,0,0,0,18.547,34.009,19.283,19.283,0,0,0,8.466,37.062Zm5.762.737a13.894,13.894,0,0,1,4.319-.7A17.082,17.082,0,0,1,34.9,49.465H31.651a13.93,13.93,0,0,0-3.187-5.1c-.025-.03-.034-.065-.062-.093s-.062-.035-.088-.059A13.755,13.755,0,0,0,15.176,40.63Zm0,0" transform="translate(0.5 0.514)" fill="#fff" stroke="#182877" stroke-width="1"/>
</svg>
