<svg xmlns="http://www.w3.org/2000/svg" width="42.059" height="42" viewBox="0 0 42.059 42">
  <path id="phone" d="M26.025,27.458a31.252,31.252,0,0,1-6.589-5.1,31.748,31.748,0,0,1-5.13-6.621l4.429-4.486L7.55,0,2.04,5.474A6.931,6.931,0,0,0,.691,13.4,60.823,60.823,0,0,0,12.372,29.629,60.823,60.823,0,0,0,28.605,41.309a6.861,6.861,0,0,0,3,.691,6.954,6.954,0,0,0,4.918-2.04l5.485-5.5L30.6,23.027Zm8.182,10.185a3.65,3.65,0,0,1-4.169.717A57.5,57.5,0,0,1,14.691,27.31,57.5,57.5,0,0,1,3.641,11.963,3.648,3.648,0,0,1,4.355,7.8l3.18-3.159,6.583,6.622-3.773,3.822L10.8,16.1a31.751,31.751,0,0,0,6.316,8.574,31.193,31.193,0,0,0,8.542,6.28l1.009.443,3.895-3.771,6.818,6.829ZM30.324,15.448,22.605,7.73,30.324.011,32.643,2.33,28.965,6.008h8.156a4.93,4.93,0,0,1,4.929,4.919l.01,8.606-3.279,0-.01-8.609a1.647,1.647,0,0,0-1.65-1.642H28.8l3.842,3.842Zm0,0" transform="translate(-0.001)" fill="#ffdc47"/>
</svg>
