<svg xmlns="http://www.w3.org/2000/svg" width="48.333" height="68" viewBox="0 0 48.333 68">
  <g id="iconfinder_Tilda_Icons_1ed_phone_3586359" transform="translate(-18.3 -8.6)">
    <path id="Path_16060" data-name="Path 16060" d="M58.909,8.6H26.024A7.714,7.714,0,0,0,18.3,16.244V68.956A7.663,7.663,0,0,0,26.024,76.6H58.909a7.714,7.714,0,0,0,7.724-7.644V16.244A7.663,7.663,0,0,0,58.909,8.6Zm5.335,60.356a5.268,5.268,0,0,1-5.335,5.255H26.024a5.319,5.319,0,0,1-5.335-5.255V16.244a5.268,5.268,0,0,1,5.335-5.255H58.909a5.319,5.319,0,0,1,5.335,5.255Z" fill="#fff"/>
    <path id="Path_16061" data-name="Path 16061" d="M55.562,18.1H35.894a1.194,1.194,0,0,0,0,2.389H55.562a1.194,1.194,0,1,0,0-2.389Z" transform="translate(-3.341 -1.936)" fill="#fff"/>
    <path id="Path_16062" data-name="Path 16062" d="M47.581,75.4A3.993,3.993,0,0,0,43.6,79.381a3.735,3.735,0,0,0,1.194,2.787,3.979,3.979,0,0,0,2.787,1.115h0A3.993,3.993,0,0,0,51.563,79.3,3.926,3.926,0,0,0,47.581,75.4Zm.08,5.574h0a1.633,1.633,0,0,1-1.593-1.593,1.6,1.6,0,0,1,1.593-1.593h0a1.593,1.593,0,0,1,0,3.185Z" transform="translate(-5.155 -13.61)" fill="#fff"/>
  </g>
</svg>
