<svg xmlns="http://www.w3.org/2000/svg" width="25.583" height="25.547" viewBox="0 0 25.583 25.547">
  <path id="phone" d="M15.83,16.7a19.009,19.009,0,0,1-4.008-3.1A19.311,19.311,0,0,1,8.7,9.573L11.4,6.844,4.593,0,1.241,3.329A4.216,4.216,0,0,0,.421,8.148a37,37,0,0,0,7.105,9.874A37,37,0,0,0,17.4,25.127a4.173,4.173,0,0,0,1.827.42,4.23,4.23,0,0,0,2.991-1.241l3.336-3.348-6.941-6.952Zm4.977,6.2a2.22,2.22,0,0,1-2.536.436,34.977,34.977,0,0,1-9.335-6.721A34.977,34.977,0,0,1,2.215,7.276a2.219,2.219,0,0,1,.434-2.534L4.584,2.821l4,4.028-2.3,2.325L6.57,9.8a19.313,19.313,0,0,0,3.842,5.215,18.974,18.974,0,0,0,5.2,3.82l.614.27,2.369-2.294,4.147,4.154ZM18.445,9.4,13.75,4.7,18.445.007l1.411,1.411L17.619,3.654h4.961a3,3,0,0,1,3,2.992l.006,5.235-1.995,0-.006-5.236a1,1,0,0,0-1-1H17.519l2.337,2.337Zm0,0" transform="translate(-0.001)" fill="#fff"/>
</svg>
