<svg xmlns="http://www.w3.org/2000/svg" width="33.652" height="42" viewBox="0 0 33.652 42">
  <g id="pin_1_" data-name="pin(1)" transform="translate(-50.885)">
    <g id="Group_2931" data-name="Group 2931" transform="translate(59.914 9.029)">
      <g id="Group_2930" data-name="Group 2930">
        <path id="Path_16066" data-name="Path 16066" d="M168.744,110.062a7.8,7.8,0,1,0,7.8,7.8A7.806,7.806,0,0,0,168.744,110.062Zm0,12.312a4.514,4.514,0,1,1,4.514-4.514A4.519,4.519,0,0,1,168.744,122.374Z" transform="translate(-160.947 -110.062)" fill="#ffdc47"/>
      </g>
    </g>
    <g id="Group_2933" data-name="Group 2933" transform="translate(50.885)">
      <g id="Group_2932" data-name="Group 2932">
        <path id="Path_16067" data-name="Path 16067" d="M67.711,0A16.845,16.845,0,0,0,50.885,16.826v.465c0,4.692,2.69,10.16,8,16.251a69.165,69.165,0,0,0,7.8,7.624L67.711,42l1.032-.834a69.15,69.15,0,0,0,7.8-7.624c5.306-6.091,8-11.559,8-16.251v-.465A16.845,16.845,0,0,0,67.711,0ZM81.254,17.291c0,7.93-10.217,17.528-13.543,20.442C64.384,34.819,54.168,25.22,54.168,17.291v-.465a13.543,13.543,0,0,1,27.086,0v.465Z" transform="translate(-50.885)" fill="#ffdc47"/>
      </g>
    </g>
  </g>
</svg>
