<svg id="pin_1_" data-name="pin(1)" xmlns="http://www.w3.org/2000/svg" width="20.469" height="25.547" viewBox="0 0 20.469 25.547">
  <g id="Group_2931" data-name="Group 2931" transform="translate(5.492 5.492)">
    <g id="Group_2930" data-name="Group 2930">
      <path id="Path_16066" data-name="Path 16066" d="M165.69,110.062a4.743,4.743,0,1,0,4.743,4.743A4.748,4.748,0,0,0,165.69,110.062Zm0,7.489a2.746,2.746,0,1,1,2.746-2.746A2.749,2.749,0,0,1,165.69,117.551Z" transform="translate(-160.947 -110.062)" fill="#fff"/>
    </g>
  </g>
  <g id="Group_2933" data-name="Group 2933" transform="translate(0)">
    <g id="Group_2932" data-name="Group 2932">
      <path id="Path_16067" data-name="Path 16067" d="M61.12,0A10.246,10.246,0,0,0,50.885,10.235v.283c0,2.854,1.636,6.18,4.864,9.885a42.072,42.072,0,0,0,4.743,4.637l.628.507.628-.507A42.061,42.061,0,0,0,66.491,20.4c3.227-3.705,4.864-7.031,4.864-9.885v-.283A10.246,10.246,0,0,0,61.12,0Zm8.238,10.518c0,4.823-6.215,10.662-8.238,12.434-2.023-1.773-8.238-7.611-8.238-12.434v-.283a8.238,8.238,0,1,1,16.475,0v.283Z" transform="translate(-50.885)" fill="#fff"/>
    </g>
  </g>
</svg>
