<svg xmlns="http://www.w3.org/2000/svg" width="106.97" height="80.246" viewBox="0 0 106.97 80.246">
  <g id="iconfinder_icon-social-youtube-outline_211928" transform="translate(0.007 -64)">
    <g id="Group_3211" data-name="Group 3211" transform="translate(-0.007 64)">
      <path id="Path_18081" data-name="Path 18081" d="M55.359,70.685c13.643,0,24.8.23,35.12.689h.292c4.826,0,8.775,4.6,8.775,10.258v.23l.021.23c.481,7.1.71,14.478.71,21.916h0c.021,7.438-.23,14.812-.71,21.916l-.021.23v.23a11.072,11.072,0,0,1-2.8,7.542,8.086,8.086,0,0,1-5.975,2.8h-.334c-11.052.522-22.731.794-34.764.794H51.2c-12.076,0-23.754-.272-34.723-.773h-.334a8.043,8.043,0,0,1-5.954-2.8,11.173,11.173,0,0,1-2.8-7.542v-.23l-.021-.23c-.5-7.124-.731-14.5-.689-21.874v-.042c-.021-7.375.209-14.729.689-21.853l.021-.23v-.23c0-5.683,3.928-10.3,8.754-10.3h.292c10.342-.481,21.5-.689,35.14-.689h3.781m0-6.727H51.6c-12.034,0-23.859.167-35.433.689C7.641,64.689.726,72.273.726,81.675.2,89.154-.026,96.592-.005,104.05c-.021,7.458.188,14.9.71,22.355,0,9.4,6.915,17.048,15.439,17.048q17.173.815,35.057.794h4.513q17.894,0,35.078-.794c8.545,0,15.46-7.646,15.46-17.048q.752-11.188.71-22.375c.021-7.458-.209-14.9-.71-22.375,0-9.4-6.915-16.943-15.46-16.943C79.217,64.167,67.413,64,55.359,64Z" transform="translate(0.007 -64)" fill="#fff"/>
    </g>
    <g id="Group_3212" data-name="Group 3212" transform="translate(43.241 83.513)">
      <path id="Path_18082" data-name="Path 18082" d="M207,198.432V157.4l30.294,20.516Z" transform="translate(-207 -157.4)" fill="#fff"/>
    </g>
  </g>
</svg>
