<svg xmlns="http://www.w3.org/2000/svg" width="412.689" height="388.82" viewBox="0 0 412.689 388.82">
  <g id="quad" transform="translate(0.717 186.327) rotate(-34)" opacity="0.105">
    <g id="Group_3227" data-name="Group 3227" transform="translate(0 0)">
      <g id="Group_3228" data-name="Group 3228">
        <path id="Path_16056" data-name="Path 16056" d="M5.533,232.35a5.532,5.532,0,1,0,0,11.063H66.38a49.6,49.6,0,0,0,34.74-14.188,1.569,1.569,0,0,0,.858-.858A49.284,49.284,0,0,0,115.84,188.1h11.1c0,.322.089.631.116.952A11.06,11.06,0,0,0,138.1,199.16h55.714a11.062,11.062,0,0,0,11.036-10.124c.028-.319.089-.623.116-.939h11.1a49.322,49.322,0,0,0,14.056,40.47c.081.094.114.22.21.317s.225.132.332.22a47.053,47.053,0,0,0,3.644,3.246H182.549a5.532,5.532,0,1,0,0,11.063h82.976a49.6,49.6,0,0,0,34.737-14.188,1.569,1.569,0,0,0,.858-.858A49.631,49.631,0,0,0,301,158.778c-.089-.106-.122-.233-.22-.332s-.223-.127-.317-.21a49.874,49.874,0,0,0-5.348-4.53l5.558-8.336a70.771,70.771,0,0,1,11.539,11.008,11.115,11.115,0,0,0,12.451,3.4,10.917,10.917,0,0,0,7.242-10.4V128.265a33.492,33.492,0,0,0-3.512-14.879L312.949,82.5a33.211,33.211,0,0,0-6.042-8.4c-.111-.111-.22-.21-.342-.314a33.294,33.294,0,0,0-6.865-5.29l-28.8-16.48C267.655,17.391,214.138.942,211.793.233a5.533,5.533,0,0,0-3.175,10.6c12.59,3.77,42.845,16.925,49.87,36.31L220.666,34.534a16.567,16.567,0,1,0-15.991,20.8,17.358,17.358,0,0,0,2.261-.225l13.173,21.949L202.584,99.588H162.511a55.974,55.974,0,0,1-31.164-9.435L112.654,77.694A67.248,67.248,0,0,0,27.8,86.1l-2.428,2.428h-14.3A11.065,11.065,0,0,0,0,99.588v11.066a11.063,11.063,0,0,0,11.063,11.063h1.99l7.131,15.426a11.061,11.061,0,0,0,15.872,5.1c1.57-.95,3.12-1.808,4.652-2.611l3.208,9.625a50.279,50.279,0,0,0-12.608,9.073c-.038.038-.094.051-.132.094s-.056.094-.094.134a49.674,49.674,0,0,0-.106,70.009c.084.094.116.22.21.317s.228.132.332.22a47.554,47.554,0,0,0,3.646,3.246Zm37.133-14.935a5.464,5.464,0,0,0-7.136-.458,38.439,38.439,0,0,1-7.44-17.862,5.454,5.454,0,0,0,0-10.886,38.38,38.38,0,0,1,7.419-17.829,5.415,5.415,0,0,0,7.6-7.6,38.387,38.387,0,0,1,17.829-7.417,5.454,5.454,0,0,0,10.886,0,38.44,38.44,0,0,1,17.862,7.44,5.4,5.4,0,0,0,7.584,7.594,38.393,38.393,0,0,1,7.4,17.809,5.454,5.454,0,0,0,0,10.886,38.432,38.432,0,0,1-7.43,17.84,5.41,5.41,0,0,0-7.579,7.579,38.4,38.4,0,0,1-17.84,7.427,5.454,5.454,0,0,0-10.886,0,38.393,38.393,0,0,1-17.791-7.417A5.465,5.465,0,0,0,42.666,217.415Zm95.425-29.179a71.217,71.217,0,0,0-3.375-16.736h62.452a70.313,70.313,0,0,0-3.358,16.6Zm96.562-17.857a5.415,5.415,0,0,0,7.6-7.6,38.387,38.387,0,0,1,17.829-7.417,5.454,5.454,0,0,0,10.886,0,38.429,38.429,0,0,1,17.862,7.44,5.4,5.4,0,0,0,7.584,7.594,38.393,38.393,0,0,1,7.4,17.809,5.454,5.454,0,0,0,0,10.886,38.432,38.432,0,0,1-7.43,17.84,5.41,5.41,0,0,0-7.579,7.579,38.4,38.4,0,0,1-17.84,7.427,5.454,5.454,0,0,0-10.886,0,38.373,38.373,0,0,1-17.789-7.417,5.416,5.416,0,0,0-7.6-7.584,38.4,38.4,0,0,1-7.44-17.862,5.454,5.454,0,0,0,0-10.886,38.349,38.349,0,0,1,7.4-17.829Zm50.89-22.276a49.612,49.612,0,0,0-55.1,10.25c-.038.038-.094.048-.132.094s-.056.094-.094.132a49.851,49.851,0,0,0-11.572,18.455H207.025a61.139,61.139,0,0,1,58.5-44.253,55.781,55.781,0,0,1,25.831,6.594ZM301.48,84.769a21.7,21.7,0,0,1,1.593,2.684l7.159,14.31-28-8.26Zm-72.721-14.8L216.784,50.014a16.883,16.883,0,0,0,2.821-4.155l32.433,10.81ZM199.142,38.74a5.532,5.532,0,1,1,5.533,5.53A5.532,5.532,0,0,1,199.142,38.74ZM75.354,77.461A56,56,0,0,1,106.518,86.9l18.693,12.459a67.03,67.03,0,0,0,37.3,11.3h31.466l-6.938,8.921a5.592,5.592,0,0,1-4.376,2.142H136.108a5.551,5.551,0,0,1-3.064-.929l-44.215-29.5a16.591,16.591,0,0,0-9.172-2.768H41.964A55.742,55.742,0,0,1,75.354,77.461ZM11.063,99.588H22.127l-8.3,11.066H11.063ZM30.3,132.646,23,116.86,35.955,99.588h43.7a5.554,5.554,0,0,1,3.067.929l44.187,29.5a16.571,16.571,0,0,0,9.2,2.768h46.555a16.5,16.5,0,0,0,13.107-6.407L230.5,81.728,265.525,61.7l26.55,15.206-14.3,6.472a11.062,11.062,0,0,0,1.218,20.815l37.976,11.109,1.509,3.026a22.239,22.239,0,0,1,2.345,9.957l-.132,20.992a70.547,70.547,0,0,0-118.871,11.157H130.058a72.18,72.18,0,0,0-63.678-38.72A69.013,69.013,0,0,0,30.3,132.646Zm20.623,2.639a49.726,49.726,0,0,1,15.459-2.5,61.136,61.136,0,0,1,58.515,44.253H113.279a49.856,49.856,0,0,0-11.408-18.255c-.089-.106-.122-.233-.22-.332s-.22-.127-.317-.21a49.23,49.23,0,0,0-47.018-12.823Zm0,0" transform="translate(0 0)" fill="#fff" stroke="#182877" stroke-width="1"/>
      </g>
    </g>
    <path id="Path_16057" data-name="Path 16057" d="M5.533,0a5.532,5.532,0,1,0,0,11.063h38.72A5.532,5.532,0,1,0,44.253,0Zm0,0" transform="translate(116.166 232.35)" fill="#fff" stroke="#182877" stroke-width="1"/>
    <path id="Path_16058" data-name="Path 16058" d="M22.127,44.256A22.128,22.128,0,1,0,0,22.129,22.13,22.13,0,0,0,22.127,44.256Zm0-33.192A11.065,11.065,0,1,1,11.063,22.129,11.065,11.065,0,0,1,22.127,11.063Zm0,0" transform="translate(44.253 171.5)" fill="#fff" stroke="#182877" stroke-width="1"/>
    <path id="Path_16059" data-name="Path 16059" d="M22.129,44.256A22.128,22.128,0,1,0,0,22.129,22.128,22.128,0,0,0,22.129,44.256Zm0-33.192A11.065,11.065,0,1,1,11.066,22.129,11.065,11.065,0,0,1,22.129,11.063Zm0,0" transform="translate(243.396 171.5)" fill="#fff" stroke="#182877" stroke-width="1"/>
  </g>
</svg>
