<svg xmlns="http://www.w3.org/2000/svg" xmlns:xlink="http://www.w3.org/1999/xlink" width="340" height="729" viewBox="0 0 340 729">
  <defs>
    <clipPath id="clip-path">
      <path id="Rectangle_2639" data-name="Rectangle 2639" d="M30,0H340a0,0,0,0,1,0,0V729a0,0,0,0,1,0,0H0a0,0,0,0,1,0,0V30A30,30,0,0,1,30,0Z" fill="#2d3d8b"/>
    </clipPath>
  </defs>
  <g id="Mask_Group_34" data-name="Mask Group 34" clip-path="url(#clip-path)">
    <g id="quad" transform="translate(314.442 427.537) rotate(-159)" opacity="0.105">
      <path id="Path_18090" data-name="Path 18090" d="M6.813,13.572A7.048,7.048,0,0,1,0,6.659,6.439,6.439,0,0,1,6.561,0l73.52,1.386a61.768,61.768,0,0,1,42.3,18.2,2.014,2.014,0,0,1,1.057,1.073A63.026,63.026,0,0,1,141.1,70.369l13.417.253c-.007-.395.093-.771.119-1.165A12.841,12.841,0,0,1,167.74,57.3l67.318,1.269a14.084,14.084,0,0,1,13.564,12.67c.041.392.121.766.162,1.155l13.416.253a59.151,59.151,0,0,1,16.063-49.324c.1-.113.133-.268.247-.383s.269-.156.4-.263a54.048,54.048,0,0,1,4.329-3.9L220.7,17.6a7.048,7.048,0,0,1-6.811-6.913,6.439,6.439,0,0,1,6.559-6.658L320.7,5.922a61.767,61.767,0,0,1,42.3,18.2,2.014,2.014,0,0,1,1.057,1.073c23.339,24.16,23.98,62.145,1.438,85.36-.1.128-.142.283-.259.4s-.266.15-.378.251a57.233,57.233,0,0,1-6.359,5.435l6.906,10.352a81.39,81.39,0,0,0,13.692-13.24,12.979,12.979,0,0,1,14.967-3.882,14.015,14.015,0,0,1,8.987,12.922l.481,25.894a40.624,40.624,0,0,1-3.9,18.172L381.668,204.39a38.643,38.643,0,0,1-7.109,10.169c-.132.134-.261.253-.406.377a38.179,38.179,0,0,1-8.174,6.333l-34.428,19.559c-3.128,42.4-67.416,61.357-70.233,62.174a6.776,6.776,0,0,1-6.534-1.685,7.066,7.066,0,0,1-2.039-6.538,6.414,6.414,0,0,1,4.495-4.852c15.127-4.338,51.384-19.786,59.43-43.4l-45.412,14.6a19.191,19.191,0,0,1-22.519,14.4,21.2,21.2,0,0,1-16.905-22.1,19.232,19.232,0,0,1,19.629-18.177,20.913,20.913,0,0,1,2.737.328l15.416-26.625-21.689-28.035L199.509,180a64.931,64.931,0,0,0-37.44,10.864l-22.3,14.857c-31.822,21.208-74.82,16.084-102.723-12.239l-2.99-3.034-17.284-.326A14.1,14.1,0,0,1,3.15,176.3L2.9,162.729A12.878,12.878,0,0,1,16.014,149.41l2.4.045,8.265-18.761a12.757,12.757,0,0,1,8.047-7.4A13.36,13.36,0,0,1,45.745,124.8c1.919,1.2,3.811,2.289,5.68,3.308l3.657-11.734a64.091,64.091,0,0,1-15.441-11.417c-.047-.047-.114-.064-.161-.118s-.069-.116-.116-.167C15.643,80.509,14.873,42.152,37.642,18.792c.1-.113.136-.268.247-.383s.272-.156.4-.263a54.61,54.61,0,0,1,4.332-3.9ZM52.019,32.738a6.492,6.492,0,0,1-8.612.4A45.755,45.755,0,0,0,34.825,54.88a6.962,6.962,0,0,1,6.3,6.795,6.351,6.351,0,0,1-6.047,6.559,49.35,49.35,0,0,0,9.371,22.04,6.509,6.509,0,0,1,8.66.707,6.759,6.759,0,0,1,.7,8.791,47.875,47.875,0,0,0,21.712,9.5,6.336,6.336,0,0,1,6.459-6.141,6.946,6.946,0,0,1,6.695,6.389,44.313,44.313,0,0,0,21.413-8.719,6.672,6.672,0,0,1,.345-8.781,6.422,6.422,0,0,1,8.646-.362,45.7,45.7,0,0,0,8.538-21.678,6.961,6.961,0,0,1-6.3-6.792,6.356,6.356,0,0,1,6.047-6.562,49.417,49.417,0,0,0-9.383-22.053,6.51,6.51,0,0,1-8.578-.761,6.762,6.762,0,0,1-.752-8.709A47.9,47.9,0,0,0,86.92,15.591a6.334,6.334,0,0,1-6.462,6.138,6.942,6.942,0,0,1-6.691-6.386,44.259,44.259,0,0,0-21.328,8.693A6.742,6.742,0,0,1,52.019,32.738ZM167.983,70.7a86.721,86.721,0,0,1-3.7,20.452l75.46,1.422a89.356,89.356,0,0,1-4.435-20.435Zm117.08,24.1a6.509,6.509,0,0,1,8.66.707,6.759,6.759,0,0,1,.7,8.791,47.875,47.875,0,0,0,21.712,9.5,6.336,6.336,0,0,1,6.462-6.141,6.945,6.945,0,0,1,6.691,6.389,44.3,44.3,0,0,0,21.413-8.719,6.675,6.675,0,0,1,.345-8.781,6.422,6.422,0,0,1,8.646-.362,45.7,45.7,0,0,0,8.538-21.678,6.961,6.961,0,0,1-6.3-6.792,6.356,6.356,0,0,1,6.047-6.562,49.417,49.417,0,0,0-9.383-22.053,6.51,6.51,0,0,1-8.578-.761,6.762,6.762,0,0,1-.752-8.709,47.9,47.9,0,0,0-21.724-9.517,6.333,6.333,0,0,1-6.459,6.138,6.943,6.943,0,0,1-6.694-6.386,44.236,44.236,0,0,0-21.325,8.693,6.68,6.68,0,0,1-.416,8.724,6.434,6.434,0,0,1-8.6.406,45.711,45.711,0,0,0-8.582,21.742,6.961,6.961,0,0,1,6.3,6.792,6.352,6.352,0,0,1-6.047,6.562,49.308,49.308,0,0,0,9.349,22.04Zm62,28.484c-22.431,9.728-48.969,4.238-66.811-13.829-.047-.047-.114-.061-.161-.118s-.069-.116-.116-.164a64.4,64.4,0,0,1-14.4-22.9l-14.038-.265c9.66,32.2,38.865,54.855,71.692,55.617a64.887,64.887,0,0,0,31.061-7.5Zm20.7,78.053a25.432,25.432,0,0,0,1.863-3.256l8.324-17.39-33.639,9.5Zm-87.53,16.5L266.215,242.05a21.824,21.824,0,0,1,3.5,5.162L308.66,234.69Zm-35.074,37.635a7.048,7.048,0,0,0,6.811,6.913,6.439,6.439,0,0,0,6.556-6.661,7.047,7.047,0,0,0-6.808-6.91A6.439,6.439,0,0,0,245.155,255.478ZM94.7,205.161a64.957,64.957,0,0,0,37.44-10.867l22.3-14.857a77.756,77.756,0,0,1,44.811-13.008l38.019.717-8.587-11.1a7.009,7.009,0,0,0-5.336-2.728l-56.251-1.06a6.439,6.439,0,0,0-3.681,1.07L110.668,188.5a19.247,19.247,0,0,1-11.019,3.186l-45.543-.858A68.936,68.936,0,0,0,94.7,205.161ZM16.518,176.555l13.368.252L19.607,163.044l-3.341-.063Zm22.488-40.114-8.458,19.2,16.046,21.483,52.8,1a6.442,6.442,0,0,0,3.684-1.07L155.8,141.872a19.225,19.225,0,0,1,11.05-3.186l56.251,1.06a20.681,20.681,0,0,1,15.983,8.157l42.977,55.557,42.78,25.362,31.734-18.048-17.425-8.265a14.208,14.208,0,0,1-8.392-13.448A12.9,12.9,0,0,1,340.147,177l45.632-12.762,1.755-3.678a26.977,26.977,0,0,0,2.607-12.16l-.637-25.754a81.555,81.555,0,0,1-74.916,31.981c-29.21-3.327-55.253-21.594-68.966-48.374l-86.71-1.634a83.219,83.219,0,0,1-76.059,46.047A85.11,85.11,0,0,1,39.006,136.441Zm24.858-2.767A60.373,60.373,0,0,0,82.6,137.1a70.657,70.657,0,0,0,69.694-52.952l-14.035-.265a58.353,58.353,0,0,1-13.368,22.133c-.1.128-.142.283-.259.4s-.263.15-.378.251a57.384,57.384,0,0,1-56.519,14.659Zm0,0" transform="translate(0 0)" fill="#9f8823"/>
      <path id="Path_18091" data-name="Path 18091" d="M6.813,13.572A7.048,7.048,0,0,1,0,6.659,6.439,6.439,0,0,1,6.561,0L53.346.883a7.047,7.047,0,0,1,6.811,6.91A6.439,6.439,0,0,1,53.6,14.454Zm0,0" transform="translate(140.361 2.645)" fill="#9f8823"/>
      <path id="Path_18092" data-name="Path 18092" d="M26.236,0C41,.283,53.2,12.663,53.478,27.651A25.76,25.76,0,0,1,27.244,54.292C12.478,54.014.283,41.634,0,26.643A25.757,25.757,0,0,1,26.236,0Zm.756,40.716A12.88,12.88,0,0,0,40.108,27.4a14.1,14.1,0,0,0-13.62-13.823A12.878,12.878,0,0,0,13.372,26.895,14.1,14.1,0,0,0,26.992,40.721Zm0,0" transform="translate(54.474 35.308)" fill="#9f8823"/>
      <path id="Path_18093" data-name="Path 18093" d="M26.239,0C41.005.283,53.2,12.663,53.478,27.651A25.758,25.758,0,0,1,27.247,54.292C12.481,54.014.283,41.634,0,26.643A25.76,25.76,0,0,1,26.239,0ZM27,40.721A12.88,12.88,0,0,0,40.111,27.4,14.1,14.1,0,0,0,26.491,13.576,12.878,12.878,0,0,0,13.375,26.895,14.1,14.1,0,0,0,27,40.721Zm0,0" transform="translate(295.094 39.843)" fill="#9f8823"/>
    </g>
    <g id="quad-2" data-name="quad" transform="translate(-145.292 531.427) rotate(-21)" opacity="0.105">
      <path id="Path_18090-2" data-name="Path 18090" d="M6.813,289.68A7.048,7.048,0,0,0,0,296.594a6.439,6.439,0,0,0,6.559,6.658l73.52-1.386a61.768,61.768,0,0,0,42.3-18.2,2.014,2.014,0,0,0,1.057-1.073A63.026,63.026,0,0,0,141.1,232.884l13.417-.253c-.007.395.093.771.119,1.165a12.841,12.841,0,0,0,13.1,12.152l67.318-1.269a14.084,14.084,0,0,0,13.564-12.67c.041-.392.121-.766.162-1.155L262.2,230.6a59.151,59.151,0,0,0,16.063,49.324c.1.113.133.268.247.383s.269.156.4.263a54.043,54.043,0,0,0,4.329,3.9L220.7,285.65a7.048,7.048,0,0,0-6.811,6.913,6.439,6.439,0,0,0,6.559,6.658L320.7,297.331a61.767,61.767,0,0,0,42.3-18.2,2.014,2.014,0,0,0,1.057-1.073c23.339-24.16,23.98-62.145,1.438-85.36-.1-.128-.142-.283-.259-.4s-.266-.15-.378-.251a57.233,57.233,0,0,0-6.359-5.435l6.906-10.352A81.39,81.39,0,0,1,379.1,189.5a12.979,12.979,0,0,0,14.967,3.882,14.015,14.015,0,0,0,8.987-12.922l.481-25.894a40.624,40.624,0,0,0-3.9-18.172L381.668,98.863a38.643,38.643,0,0,0-7.109-10.169c-.132-.134-.261-.253-.406-.377a38.179,38.179,0,0,0-8.174-6.333L331.551,62.424c-3.128-42.4-67.416-61.357-70.233-62.174a6.776,6.776,0,0,0-6.534,1.685,7.066,7.066,0,0,0-2.039,6.538,6.414,6.414,0,0,0,4.495,4.852c15.127,4.338,51.384,19.786,59.43,43.4l-45.412-14.6a19.191,19.191,0,0,0-22.519-14.4,21.2,21.2,0,0,0-16.905,22.1A19.232,19.232,0,0,0,251.463,68a20.913,20.913,0,0,0,2.737-.328L269.616,94.3l-21.689,28.035-48.419.913a64.931,64.931,0,0,1-37.44-10.864l-22.3-14.857C107.944,76.32,64.946,81.444,37.043,109.767l-2.99,3.034-17.284.326A14.1,14.1,0,0,0,3.15,126.95L2.9,140.524a12.878,12.878,0,0,0,13.116,13.319l2.4-.045,8.265,18.761a12.757,12.757,0,0,0,8.047,7.4,13.36,13.36,0,0,0,11.014-1.506c1.919-1.2,3.811-2.289,5.68-3.308l3.657,11.734A64.091,64.091,0,0,0,39.642,198.3c-.047.047-.114.064-.161.118s-.069.116-.116.167C15.643,222.744,14.873,261.1,37.642,284.46c.1.113.136.268.247.383s.272.156.4.263a54.61,54.61,0,0,0,4.332,3.9Zm45.207-19.166a6.492,6.492,0,0,0-8.612-.4,45.755,45.755,0,0,1-8.582-21.742,6.962,6.962,0,0,0,6.3-6.795,6.351,6.351,0,0,0-6.047-6.559,49.35,49.35,0,0,1,9.371-22.04,6.509,6.509,0,0,0,8.66-.707,6.759,6.759,0,0,0,.7-8.791,47.875,47.875,0,0,1,21.712-9.5,6.336,6.336,0,0,0,6.459,6.141,6.946,6.946,0,0,0,6.695-6.389,44.313,44.313,0,0,1,21.413,8.719,6.672,6.672,0,0,0,.345,8.781,6.422,6.422,0,0,0,8.646.362,45.7,45.7,0,0,1,8.538,21.678,6.961,6.961,0,0,0-6.3,6.792,6.356,6.356,0,0,0,6.047,6.562,49.417,49.417,0,0,1-9.383,22.053,6.51,6.51,0,0,0-8.578.761,6.762,6.762,0,0,0-.752,8.709,47.9,47.9,0,0,1-21.724,9.517,6.334,6.334,0,0,0-6.462-6.138,6.942,6.942,0,0,0-6.691,6.386,44.259,44.259,0,0,1-21.328-8.693A6.742,6.742,0,0,0,52.019,270.514Zm115.964-37.966a86.721,86.721,0,0,0-3.7-20.452l75.46-1.422a89.356,89.356,0,0,0-4.435,20.435Zm117.08-24.1a6.509,6.509,0,0,0,8.66-.707,6.759,6.759,0,0,0,.7-8.791,47.875,47.875,0,0,1,21.712-9.5,6.336,6.336,0,0,0,6.462,6.141,6.945,6.945,0,0,0,6.691-6.389,44.3,44.3,0,0,1,21.413,8.719,6.675,6.675,0,0,0,.345,8.781,6.422,6.422,0,0,0,8.646.362,45.7,45.7,0,0,1,8.538,21.678,6.961,6.961,0,0,0-6.3,6.792,6.356,6.356,0,0,0,6.047,6.562,49.417,49.417,0,0,1-9.383,22.053,6.51,6.51,0,0,0-8.578.761,6.762,6.762,0,0,0-.752,8.709,47.9,47.9,0,0,1-21.724,9.517,6.333,6.333,0,0,0-6.459-6.138,6.943,6.943,0,0,0-6.694,6.386,44.236,44.236,0,0,1-21.325-8.693,6.68,6.68,0,0,0-.416-8.724,6.434,6.434,0,0,0-8.6-.406,45.711,45.711,0,0,1-8.582-21.742,6.961,6.961,0,0,0,6.3-6.792,6.352,6.352,0,0,0-6.047-6.562,49.308,49.308,0,0,1,9.349-22.04Zm62-28.484c-22.431-9.728-48.969-4.238-66.811,13.829-.047.047-.114.061-.161.118s-.069.116-.116.164a64.4,64.4,0,0,0-14.4,22.9l-14.038.265c9.66-32.2,38.865-54.855,71.692-55.617a64.887,64.887,0,0,1,31.061,7.5Zm20.7-78.053a25.432,25.432,0,0,1,1.863,3.256l8.324,17.39-33.639-9.5Zm-87.53-16.5L266.215,61.2a21.824,21.824,0,0,0,3.5-5.162L308.66,68.563ZM245.155,47.775a7.048,7.048,0,0,1,6.811-6.913,6.439,6.439,0,0,1,6.556,6.661,7.047,7.047,0,0,1-6.808,6.91A6.439,6.439,0,0,1,245.155,47.775ZM94.7,98.092a64.957,64.957,0,0,1,37.44,10.867l22.3,14.857a77.756,77.756,0,0,0,44.811,13.008l38.019-.717-8.587,11.1a7.009,7.009,0,0,1-5.336,2.728L167.1,151a6.439,6.439,0,0,1-3.681-1.07l-52.753-35.175a19.247,19.247,0,0,0-11.019-3.186l-45.543.858A68.936,68.936,0,0,1,94.7,98.092ZM16.518,126.7l13.368-.252L19.607,140.209l-3.341.063Zm22.488,40.114-8.458-19.2,16.046-21.483,52.8-1a6.442,6.442,0,0,1,3.684,1.07L155.8,161.381a19.225,19.225,0,0,0,11.05,3.186l56.251-1.06a20.681,20.681,0,0,0,15.983-8.157l42.977-55.557,42.78-25.362,31.734,18.048-17.425,8.265a14.208,14.208,0,0,0-8.392,13.448,12.9,12.9,0,0,0,9.389,12.057l45.632,12.762,1.755,3.678a26.977,26.977,0,0,1,2.607,12.16L389.5,180.6a81.555,81.555,0,0,0-74.916-31.981c-29.21,3.327-55.253,21.594-68.966,48.374l-86.71,1.634a83.219,83.219,0,0,0-76.059-46.047A85.11,85.11,0,0,0,39.006,166.812Zm24.858,2.767A60.373,60.373,0,0,1,82.6,166.155a70.657,70.657,0,0,1,69.694,52.952l-14.035.265a58.353,58.353,0,0,0-13.368-22.133c-.1-.128-.142-.283-.259-.4s-.263-.15-.378-.251a57.384,57.384,0,0,0-56.519-14.659Zm0,0" transform="translate(0 0)" fill="#9f8823"/>
      <path id="Path_18091-2" data-name="Path 18091" d="M6.813.883A7.048,7.048,0,0,0,0,7.8a6.439,6.439,0,0,0,6.559,6.658l46.785-.882a7.047,7.047,0,0,0,6.811-6.91A6.439,6.439,0,0,0,53.6,0Zm0,0" transform="translate(140.361 286.152)" fill="#9f8823"/>
      <path id="Path_18092-2" data-name="Path 18092" d="M26.236,54.292C41,54.014,53.2,41.634,53.478,26.646A25.76,25.76,0,0,0,27.244,0C12.478.283.283,12.663,0,27.654A25.757,25.757,0,0,0,26.236,54.292Zm.756-40.716A12.88,12.88,0,0,1,40.108,26.9a14.1,14.1,0,0,1-13.62,13.823A12.878,12.878,0,0,1,13.372,27.4,14.1,14.1,0,0,1,26.992,13.576Zm0,0" transform="translate(54.474 213.647)" fill="#9f8823"/>
      <path id="Path_18093-2" data-name="Path 18093" d="M26.239,54.292C41.005,54.014,53.2,41.634,53.478,26.646A25.758,25.758,0,0,0,27.247,0C12.481.283.283,12.663,0,27.654A25.76,25.76,0,0,0,26.239,54.292ZM27,13.576A12.88,12.88,0,0,1,40.111,26.9,14.1,14.1,0,0,1,26.491,40.721,12.878,12.878,0,0,1,13.375,27.4,14.1,14.1,0,0,1,27,13.576Zm0,0" transform="translate(295.094 209.112)" fill="#9f8823"/>
    </g>
  </g>
</svg>
