<svg xmlns="http://www.w3.org/2000/svg" width="30.752" height="50" viewBox="0 0 30.752 50">
  <g id="startup" transform="translate(-124.369 0.001)">
    <g id="Group_3229" data-name="Group 3229" transform="translate(133.45 14.963)">
      <g id="Group_3228" data-name="Group 3228" transform="translate(0)">
        <path id="Path_18084" data-name="Path 18084" d="M198.3,112a6.3,6.3,0,1,0,6.3,6.3A6.3,6.3,0,0,0,198.3,112Zm0,10.493a4.2,4.2,0,1,1,4.2-4.2A4.2,4.2,0,0,1,198.3,122.494Z" transform="translate(-192 -112.001)" fill="#1937cf"/>
      </g>
    </g>
    <g id="Group_3231" data-name="Group 3231" transform="translate(124.369 -0.001)">
      <g id="Group_3230" data-name="Group 3230" transform="translate(0 0)">
        <path id="Path_18085" data-name="Path 18085" d="M151.15,30.478a13.589,13.589,0,0,0-1.109-1l.011-.031A26.041,26.041,0,0,0,140.364.2a1.064,1.064,0,0,0-1.236,0,26.041,26.041,0,0,0-9.688,29.255l.011.031a13.583,13.583,0,0,0-1.095,20.2,1.064,1.064,0,0,0,.752.312,1.078,1.078,0,0,0,.336-.054,1.064,1.064,0,0,0,.717-.859l.8-5.621a1.064,1.064,0,0,1,1.052-.913h3.24l-.808,4.043a1.064,1.064,0,0,0,1.043,1.277H144a1.064,1.064,0,0,0,1.043-1.277l-.809-4.043h3.24a1.064,1.064,0,0,1,1.052.914l.8,5.62a1.064,1.064,0,0,0,.717.859,1.078,1.078,0,0,0,.336.054,1.064,1.064,0,0,0,.752-.312A13.583,13.583,0,0,0,151.15,30.478Zm-11.4-28.093a24,24,0,0,1,6.289,7.188H133.456A24,24,0,0,1,139.746,2.386Zm-7.73,38.039a3.206,3.206,0,0,0-3.159,2.74l-.461,3.227a11.432,11.432,0,0,1-1.861-7.273h0a11.472,11.472,0,0,1,3.617-7.457l2.815,8.764Zm4.772,5.319.638-3.191h4.638l.638,3.191ZM135.2,40.425l-3.5-10.9-.234-.729a23.92,23.92,0,0,1,.92-17.1h14.719a23.92,23.92,0,0,1,.92,17.1l-.234.729-3.5,10.9Zm15.893,5.967-.461-3.227a3.206,3.206,0,0,0-3.158-2.74h-.951l2.817-8.764a11.491,11.491,0,0,1,1.753,14.731Z" transform="translate(-124.369 0.001)" fill="#1937cf"/>
      </g>
    </g>
  </g>
</svg>
