<svg id="youtube" xmlns="http://www.w3.org/2000/svg" width="29.456" height="27.314" viewBox="0 0 29.456 27.314">
  <g id="Group_2939" data-name="Group 2939">
    <g id="Group_2938" data-name="Group 2938">
      <path id="Path_16074" data-name="Path 16074" d="M28.856,75.9a5.359,5.359,0,0,0-3.2-4.1c-2.21-.775-10.042-.8-10.928-.8s-8.712.021-10.917.765l-.012,0A5.488,5.488,0,0,0,.6,75.9l0,.008a64.3,64.3,0,0,0,0,17.5,5.36,5.36,0,0,0,3.2,4.108c2.23.774,10.042.8,10.925.8s8.712-.021,10.917-.765l.006,0a5.36,5.36,0,0,0,3.206-4.108l0-.008a59.261,59.261,0,0,0,.6-8.741A56.4,56.4,0,0,0,28.856,75.9Zm-1.7,8.786a54.812,54.812,0,0,1-.52,7.988,2.643,2.643,0,0,1-1.577,2.02c-1.63.547-8.008.667-10.329.667S6.044,95.238,4.4,94.668a2.64,2.64,0,0,1-1.58-2.021,57.036,57.036,0,0,1-.52-7.989,54.821,54.821,0,0,1,.52-7.988A2.729,2.729,0,0,1,4.4,74.62c1.635-.546,8.006-.666,10.326-.666s8.7.124,10.326.695a2.643,2.643,0,0,1,1.581,2.025v.006A52,52,0,0,1,27.155,84.687Z" transform="translate(0 -71.001)" fill="#fff"/>
    </g>
  </g>
  <g id="Group_2941" data-name="Group 2941" transform="translate(11.374 8.047)">
    <g id="Group_2940" data-name="Group 2940">
      <path id="Path_16075" data-name="Path 16075" d="M190.084,150.844v11.22l9.708-5.61Zm2.134,3.7,3.309,1.912-3.309,1.912Z" transform="translate(-190.084 -150.844)" fill="#fff"/>
    </g>
  </g>
</svg>
