<?xml version="1.0"?>
<svg xmlns="http://www.w3.org/2000/svg" xmlns:xlink="http://www.w3.org/1999/xlink" xmlns:svgjs="http://svgjs.com/svgjs" class="" style="enable-background:new 0 0 512 512" viewBox="0 0 447.096 447.096" x="0" y="0" width="512" height="512" version="1.1" xml:space="preserve"><g>
<g>
	<g>
		<path class="" style="" fill="#ffffff" d="M 244.257 182.457 h -41.8 v -42.4 c 0 -5.5 -4.5 -10 -10 -10 s -10 4.5 -10 10 v 42.4 h -42.4 c -5.5 0 -10 4.5 -10 10 s 4.5 10 10 10 h 42.4 v 41.9 c 0 5.5 4.5 10 10 10 s 10 -4.5 10 -10 v -41.9 h 41.8 c 5.5 0 10 -4.5 10 -10 S 249.857 182.457 244.257 182.457 Z" data-original="#000000"/>
	</g>
</g>
<g>
	<g>
		<path class="" style="" fill="#ffffff" d="M 299.157 84.457 c -59.2 -59.1 -155.5 -59.1 -214.6 0 c -59.1 59.1 -59.1 155.4 0 214.6 c 59.3 59.1 155.3 59.1 214.6 0 C 358.257 239.957 358.257 143.657 299.157 84.457 Z M 284.957 284.957 c -51.4 51.3 -135 51.4 -186.3 0 c -51.4 -51.4 -51.4 -135 0 -186.3 c 51.5 -51.3 134.8 -51.3 186.3 0 C 336.357 149.957 336.357 233.557 284.957 284.957 Z" data-original="#000000"/>
	</g>
</g>
<g>
	<g>
		<path class="" style="" fill="#ffffff" d="M 436.357 384.157 c -0.1 -0.1 -0.2 -0.2 -0.3 -0.3 l -85 -85.2 c 59 -87.9 35.6 -207.1 -52.3 -266.1 s -207.1 -35.6 -266.1 52.3 s -35.6 207.1 52.3 266.1 c 27.8 18.7 60 29.7 93.4 32.1 c 4.5 0.3 9 0.5 13.4 0.5 c 38.1 0 75.3 -11.3 106.9 -32.5 l 85 85 c 14.4 14.6 37.8 14.7 52.3 0.4 C 450.557 422.057 450.657 398.657 436.357 384.157 Z M 293.857 329.957 c -76.4 56.5 -184 40.3 -240.4 -36 c -56.4 -76.3 -40.3 -184 36.1 -240.4 c 76.4 -56.4 184 -40.3 240.4 36.1 c 44.9 60.8 44.9 143.8 -0.2 204.6 C 319.657 307.757 307.557 319.857 293.857 329.957 Z M 421.957 421.957 c -3.2 3.2 -7.5 5 -12.1 5 c -4.5 0 -8.8 -1.8 -12 -5 l -83 -83 c 4.3 -3.6 8.5 -7.4 12.6 -11.5 c 4.1 -4.1 7.9 -8.3 11.5 -12.6 l 83 83 C 428.557 404.457 428.557 415.257 421.957 421.957 Z" data-original="#000000"/>
	</g>
</g>
<g>
</g>
<g>
</g>
<g>
</g>
<g>
</g>
<g>
</g>
<g>
</g>
<g>
</g>
<g>
</g>
<g>
</g>
<g>
</g>
<g>
</g>
<g>
</g>
<g>
</g>
<g>
</g>
<g>
</g>
</g></svg>
